<mxfile host="app.diagrams.net" modified="2022-12-23T03:18:29.784Z" agent="5.0 (Windows NT 10.0; Win64; x64) AppleWebKit/537.36 (KHTML, like Gecko) Chrome/108.0.0.0 Safari/537.36" etag="aP1QzsLUGcjyLTqz0oWv" version="20.7.3" type="github">
  <diagram name="Page-1" id="5f0bae14-7c28-e335-631c-24af17079c00">
    <mxGraphModel dx="1641" dy="707" grid="1" gridSize="10" guides="1" tooltips="1" connect="1" arrows="1" fold="1" page="1" pageScale="1" pageWidth="1100" pageHeight="850" background="none" math="0" shadow="0">
      <root>
        <mxCell id="0" />
        <mxCell id="1" parent="0" />
        <mxCell id="h1nCb9S4i5P1c_Ehgcyn-24" value="" style="rounded=0;whiteSpace=wrap;html=1;" parent="1" vertex="1">
          <mxGeometry x="640" y="330" width="250" height="210" as="geometry" />
        </mxCell>
        <mxCell id="h1nCb9S4i5P1c_Ehgcyn-18" value="" style="rounded=0;whiteSpace=wrap;html=1;" parent="1" vertex="1">
          <mxGeometry x="320" y="330" width="230" height="200" as="geometry" />
        </mxCell>
        <mxCell id="h1nCb9S4i5P1c_Ehgcyn-2" value="" style="endArrow=none;dashed=1;html=1;" parent="1" edge="1">
          <mxGeometry width="50" height="50" relative="1" as="geometry">
            <mxPoint x="280" y="630" as="sourcePoint" />
            <mxPoint x="280" y="150" as="targetPoint" />
          </mxGeometry>
        </mxCell>
        <mxCell id="h1nCb9S4i5P1c_Ehgcyn-3" value="" style="endArrow=none;dashed=1;html=1;" parent="1" edge="1">
          <mxGeometry width="50" height="50" relative="1" as="geometry">
            <mxPoint x="600" y="640" as="sourcePoint" />
            <mxPoint x="600" y="160" as="targetPoint" />
          </mxGeometry>
        </mxCell>
        <mxCell id="h1nCb9S4i5P1c_Ehgcyn-4" value="" style="rounded=0;whiteSpace=wrap;html=1;" parent="1" vertex="1">
          <mxGeometry x="40" y="315" width="200" height="245" as="geometry" />
        </mxCell>
        <mxCell id="h1nCb9S4i5P1c_Ehgcyn-5" value="&lt;font style=&quot;font-size: 30px&quot;&gt;&lt;b&gt;Producer&lt;/b&gt;&lt;/font&gt;" style="text;html=1;strokeColor=none;fillColor=none;align=center;verticalAlign=middle;whiteSpace=wrap;rounded=0;" parent="1" vertex="1">
          <mxGeometry x="70" y="180" width="110" height="50" as="geometry" />
        </mxCell>
        <mxCell id="h1nCb9S4i5P1c_Ehgcyn-6" value="OpenRTB &lt;br&gt;카카오 서버" style="rounded=0;whiteSpace=wrap;html=1;" parent="1" vertex="1">
          <mxGeometry x="80" y="340" width="120" height="60" as="geometry" />
        </mxCell>
        <mxCell id="h1nCb9S4i5P1c_Ehgcyn-7" value="OpenRTB &lt;br&gt;구글 서버" style="rounded=0;whiteSpace=wrap;html=1;" parent="1" vertex="1">
          <mxGeometry x="80" y="410" width="120" height="60" as="geometry" />
        </mxCell>
        <mxCell id="h1nCb9S4i5P1c_Ehgcyn-8" value="OpenRTB &lt;br&gt;믹서 서버" style="rounded=0;whiteSpace=wrap;html=1;" parent="1" vertex="1">
          <mxGeometry x="80" y="480" width="120" height="60" as="geometry" />
        </mxCell>
        <mxCell id="h1nCb9S4i5P1c_Ehgcyn-12" value="Kafka Broker" style="rounded=0;whiteSpace=wrap;html=1;" parent="1" vertex="1">
          <mxGeometry x="360" y="355" width="120" height="60" as="geometry" />
        </mxCell>
        <mxCell id="h1nCb9S4i5P1c_Ehgcyn-13" value="Kafka Broker" style="rounded=0;whiteSpace=wrap;html=1;" parent="1" vertex="1">
          <mxGeometry x="380" y="395" width="120" height="60" as="geometry" />
        </mxCell>
        <mxCell id="h1nCb9S4i5P1c_Ehgcyn-14" value="Kafka Broker" style="rounded=0;whiteSpace=wrap;html=1;" parent="1" vertex="1">
          <mxGeometry x="410" y="435" width="120" height="60" as="geometry" />
        </mxCell>
        <mxCell id="h1nCb9S4i5P1c_Ehgcyn-19" value="" style="endArrow=classic;html=1;exitX=1;exitY=0.5;exitDx=0;exitDy=0;entryX=-0.004;entryY=0.535;entryDx=0;entryDy=0;entryPerimeter=0;" parent="1" source="h1nCb9S4i5P1c_Ehgcyn-4" target="h1nCb9S4i5P1c_Ehgcyn-18" edge="1">
          <mxGeometry width="50" height="50" relative="1" as="geometry">
            <mxPoint x="560" y="520" as="sourcePoint" />
            <mxPoint x="610" y="470" as="targetPoint" />
          </mxGeometry>
        </mxCell>
        <mxCell id="h1nCb9S4i5P1c_Ehgcyn-20" value="" style="endArrow=classic;startArrow=classic;html=1;entryX=0.5;entryY=1;entryDx=0;entryDy=0;exitX=0.5;exitY=0;exitDx=0;exitDy=0;" parent="1" source="h1nCb9S4i5P1c_Ehgcyn-18" edge="1">
          <mxGeometry width="50" height="50" relative="1" as="geometry">
            <mxPoint x="480" y="520" as="sourcePoint" />
            <mxPoint x="435" y="230" as="targetPoint" />
          </mxGeometry>
        </mxCell>
        <mxCell id="h1nCb9S4i5P1c_Ehgcyn-21" value="&lt;span style=&quot;font-size: 30px&quot;&gt;&lt;b&gt;Consumer&lt;/b&gt;&lt;/span&gt;" style="text;html=1;strokeColor=none;fillColor=none;align=center;verticalAlign=middle;whiteSpace=wrap;rounded=0;" parent="1" vertex="1">
          <mxGeometry x="697.5" y="170" width="110" height="50" as="geometry" />
        </mxCell>
        <mxCell id="h1nCb9S4i5P1c_Ehgcyn-22" value="OpenRTB Consumer&amp;nbsp;" style="rounded=0;whiteSpace=wrap;html=1;" parent="1" vertex="1">
          <mxGeometry x="692.5" y="390" width="120" height="60" as="geometry" />
        </mxCell>
        <mxCell id="h1nCb9S4i5P1c_Ehgcyn-23" value="OpenRTB Consumer&amp;nbsp;" style="rounded=0;whiteSpace=wrap;html=1;" parent="1" vertex="1">
          <mxGeometry x="717.5" y="430" width="120" height="60" as="geometry" />
        </mxCell>
        <mxCell id="h1nCb9S4i5P1c_Ehgcyn-25" value="" style="endArrow=classic;html=1;exitX=1;exitY=0.5;exitDx=0;exitDy=0;entryX=0.008;entryY=0.471;entryDx=0;entryDy=0;entryPerimeter=0;" parent="1" source="h1nCb9S4i5P1c_Ehgcyn-18" target="h1nCb9S4i5P1c_Ehgcyn-24" edge="1">
          <mxGeometry width="50" height="50" relative="1" as="geometry">
            <mxPoint x="560" y="380" as="sourcePoint" />
            <mxPoint x="610" y="330" as="targetPoint" />
          </mxGeometry>
        </mxCell>
        <mxCell id="h1nCb9S4i5P1c_Ehgcyn-26" value="&lt;font style=&quot;font-size: 30px&quot;&gt;&lt;b&gt;Zookeeper&lt;/b&gt;&lt;/font&gt;" style="rounded=0;whiteSpace=wrap;html=1;" parent="1" vertex="1">
          <mxGeometry x="340" y="170" width="190" height="60" as="geometry" />
        </mxCell>
        <mxCell id="ISUCRHDPqqK1ijAjEzcK-1" value="" style="endArrow=none;dashed=1;html=1;" parent="1" edge="1">
          <mxGeometry width="50" height="50" relative="1" as="geometry">
            <mxPoint x="930" y="640" as="sourcePoint" />
            <mxPoint x="930" y="160" as="targetPoint" />
          </mxGeometry>
        </mxCell>
        <mxCell id="ISUCRHDPqqK1ijAjEzcK-2" value="&lt;span style=&quot;font-size: 30px&quot;&gt;&lt;b&gt;DB&lt;/b&gt;&lt;/span&gt;" style="text;html=1;strokeColor=none;fillColor=none;align=center;verticalAlign=middle;whiteSpace=wrap;rounded=0;" parent="1" vertex="1">
          <mxGeometry x="1040" y="170" width="110" height="50" as="geometry" />
        </mxCell>
        <mxCell id="ISUCRHDPqqK1ijAjEzcK-3" value="MariaDB" style="rounded=0;whiteSpace=wrap;html=1;" parent="1" vertex="1">
          <mxGeometry x="970" y="325" width="250" height="210" as="geometry" />
        </mxCell>
        <mxCell id="ISUCRHDPqqK1ijAjEzcK-5" value="" style="endArrow=classic;html=1;exitX=1;exitY=0.5;exitDx=0;exitDy=0;entryX=0;entryY=0.533;entryDx=0;entryDy=0;entryPerimeter=0;" parent="1" source="h1nCb9S4i5P1c_Ehgcyn-24" target="ISUCRHDPqqK1ijAjEzcK-3" edge="1">
          <mxGeometry width="50" height="50" relative="1" as="geometry">
            <mxPoint x="560" y="440" as="sourcePoint" />
            <mxPoint x="652" y="438.9100000000001" as="targetPoint" />
          </mxGeometry>
        </mxCell>
        <mxCell id="g2GWX1vWppid6W0nAd9_-1" value="10.251.0.222&lt;br&gt;10.251.0.223&lt;br&gt;10.251.0.224" style="text;html=1;strokeColor=none;fillColor=none;align=center;verticalAlign=middle;whiteSpace=wrap;rounded=0;" vertex="1" parent="1">
          <mxGeometry x="405" y="550" width="60" height="30" as="geometry" />
        </mxCell>
        <mxCell id="g2GWX1vWppid6W0nAd9_-2" value="10.251.0.225&lt;br&gt;10.251.0.226&lt;br&gt;10.251.0.227" style="text;html=1;strokeColor=none;fillColor=none;align=center;verticalAlign=middle;whiteSpace=wrap;rounded=0;" vertex="1" parent="1">
          <mxGeometry x="460" y="240" width="60" height="30" as="geometry" />
        </mxCell>
        <mxCell id="g2GWX1vWppid6W0nAd9_-3" value="10.251.0.85&lt;br&gt;10.251.0.215" style="text;html=1;strokeColor=none;fillColor=none;align=center;verticalAlign=middle;whiteSpace=wrap;rounded=0;" vertex="1" parent="1">
          <mxGeometry x="722.5" y="220" width="60" height="30" as="geometry" />
        </mxCell>
        <mxCell id="g2GWX1vWppid6W0nAd9_-4" value="192.168.2.80&lt;br&gt;192.168.2.250" style="text;html=1;strokeColor=none;fillColor=none;align=center;verticalAlign=middle;whiteSpace=wrap;rounded=0;" vertex="1" parent="1">
          <mxGeometry x="1065" y="230" width="60" height="30" as="geometry" />
        </mxCell>
      </root>
    </mxGraphModel>
  </diagram>
</mxfile>
